<?xml version="1.0" encoding="UTF-8"?>
<svg width="497px" height="497px" viewBox="0 0 497 497" version="1.1" xmlns="http://www.w3.org/2000/svg" xmlns:xlink="http://www.w3.org/1999/xlink">
    <!-- Generator: Sketch 53.2 (72643) - https://sketchapp.com -->
    <title>one</title>
    <desc>Created with Sketch.</desc>
    <g id="Page-1" stroke="none" stroke-width="1" fill="none" fill-rule="evenodd">
        <g id="one" fill-rule="nonzero">
            <path d="M248.082,0.003 C111.07,0.003 0,111.061 0,248.085 C0,385.085 111.07,496.155 248.082,496.155 C385.088,496.155 496.158,385.085 496.158,248.085 C496.158,111.061 385.088,0.003 248.082,0.003 Z" id="Path" fill="#DB5643"></path>
            <path d="M278.767,145.419 C275.641,141.416 271.491,139.413 266.316,139.413 C261.725,139.413 258.6,140.292 256.941,142.05 C255.279,143.808 251.715,148.495 246.248,156.113 C240.778,163.73 234.504,170.615 227.425,176.767 C220.343,182.919 210.895,188.779 199.08,194.345 C191.17,198.057 185.651,201.083 182.527,203.427 C179.401,205.771 177.839,209.433 177.839,214.413 C177.839,218.711 179.425,222.495 182.6,225.766 C185.772,229.039 189.412,230.673 193.513,230.673 C202.105,230.673 218.805,221.152 243.611,202.109 L243.611,335.41 C243.611,343.224 245.417,349.132 249.031,353.135 C252.643,357.138 257.428,359.141 263.386,359.141 C276.764,359.141 283.454,349.327 283.454,329.698 L283.454,161.972 C283.455,154.941 281.892,149.425 278.767,145.419 Z" id="Path" fill="#FFFFFF"></path>
        </g>
    </g>
</svg>