<?xml version="1.0" encoding="iso-8859-1"?>
<!-- Generator: Adobe Illustrator 22.1.0, SVG Export Plug-In . SVG Version: 6.00 Build 0)  -->
<svg xmlns="http://www.w3.org/2000/svg" xmlns:xlink="http://www.w3.org/1999/xlink" version="1.1" id="Layer_3" x="0px" y="0px" viewBox="0 0 64 64" style="enable-background:new 0 0 64 64;" xml:space="preserve" width="512" height="512">
<g>
	<g>
		<path style="fill:#70B5E8;" d="M48,32L48,32c1.889-0.63,3.37-2.111,4-4v0v0c0.63,1.889,2.111,3.37,4,4l0,0h0    c-1.889,0.63-3.37,2.111-4,4v0v0C51.37,34.111,49.889,32.63,48,32L48,32z"/>
	</g>
	<g>
		<path style="fill:#70B5E8;" d="M8,32L8,32c1.889-0.63,3.37-2.111,4-4l0,0l0,0c0.63,1.889,2.111,3.37,4,4l0,0h0    c-1.889,0.63-3.37,2.111-4,4l0,0l0,0C11.37,34.111,9.889,32.63,8,32L8,32z"/>
	</g>
	<g>
		<path style="fill:#70B5E8;" d="M2,6L2,6c1.889-0.63,3.37-2.111,4-4l0,0l0,0c0.63,1.889,2.111,3.37,4,4l0,0l0,0    c-1.889,0.63-3.37,2.111-4,4l0,0l0,0C5.37,8.111,3.889,6.63,2,6L2,6z"/>
	</g>
	<g>
		<path style="fill:#70B5E8;" d="M50,6L50,6c1.889-0.63,3.37-2.111,4-4v0v0c0.63,1.889,2.111,3.37,4,4l0,0l0,0    c-1.889,0.63-3.37,2.111-4,4v0v0C53.37,8.111,51.889,6.63,50,6L50,6z"/>
	</g>
	<g>
		<rect x="28" y="38" style="fill:#F2F2F2;" width="8" height="24"/>
	</g>
	<g>
		<path style="fill:#8F8D89;" d="M50,62V48.243c0-2.717-1.079-5.322-3-7.243l0,0c-1.921-1.921-4.526-3-7.243-3H36v24H50z"/>
	</g>
	<g>
		<path style="fill:#BEBCB6;" d="M14,62V48.243c0-2.717,1.079-5.322,3-7.243l0,0c1.921-1.921,4.526-3,7.243-3H28v24H14z"/>
	</g>
	<g>
		<path style="fill:#BEBCB6;" d="M44,41c-1.921-1.921-4.526-3-7.243-3H36v24h11V48.243C47,45.526,45.921,42.921,44,41z"/>
	</g>
	<g>
		<polygon style="fill:#BB3835;" points="36,38 36,38 36,58 42,52 40,48 44,46 36,38   "/>
	</g>
	<g>
		<polygon style="fill:#F94A46;" points="28,38 28,38 28,58 22,52 24,48 20,46 28,38   "/>
	</g>
	<g>
		<polygon style="fill:#F94A46;" points="36,41 36,55 39,52 37,48 41,46   "/>
	</g>
	<g>
		<path style="fill:#FCC062;" d="M36,33v5l-0.586,0.586C34.509,39.491,33.281,40,32,40h0c-1.281,0-2.509-0.509-3.414-1.414L28,38v-5    H36z"/>
	</g>
	<g>
		<path style="fill:#FDD089;" d="M28.586,38.586c0.54,0.54,1.202,0.918,1.914,1.152c0.712-0.234,1.374-0.612,1.914-1.152L33,38v-5    h-5v5L28.586,38.586z"/>
	</g>
	<g>
		<path style="fill:#FCC062;" d="M23,20h-4c-0.552,0-1,0.448-1,1v4c0,0.552,0.448,1,1,1h4"/>
	</g>
	<g>
		<path style="fill:#FDD089;" d="M19,20c-0.552,0-1,0.448-1,1v4c0,0.552,0.448,1,1,1h1v-6H19z"/>
	</g>
	<g>
		<path style="fill:#FCC062;" d="M41,26h4c0.552,0,1-0.448,1-1v-4c0-0.552-0.448-1-1-1h-4"/>
	</g>
	<g>
		<path style="fill:#FDD089;" d="M44,25v-4c0-0.552-0.448-1-1-1h-2v6h2C43.552,26,44,25.552,44,25z"/>
	</g>
	<g>
		<path style="fill:#FCC062;" d="M42,16v8c0,5.523-4.477,10-10,10h0c-5.523,0-10-4.477-10-10v-8H42z"/>
	</g>
	<g>
		<path style="fill:#FDD089;" d="M30.5,33.875C35.309,33.15,39,29.012,39,24v-8H22v8C22,29.012,25.691,33.15,30.5,33.875z"/>
	</g>
	<g>
		<path style="fill:#4D4D4D;" d="M42,10L42,10c-1.281-1.281-3.017-2-4.828-2H24l-6-6v10l4,4h5l4,4h13v-5.172    C44,13.017,43.281,11.281,42,10z"/>
	</g>
	<g>
		<path style="fill:#666666;" d="M39,10c-1.281-1.281-3.017-2-4.828-2H24h-3l-3-3v7l4,4h2h3l4,4h10v-5.172    C41,13.017,40.281,11.281,39,10z"/>
	</g>
	<g>
		<g>
			<rect x="27" y="21" style="fill:#484745;" width="2" height="4"/>
		</g>
	</g>
	<g>
		<g>
			<rect x="35" y="21" style="fill:#484745;" width="2" height="4"/>
		</g>
	</g>
	<g>
		<g>
			<path style="fill:#484745;" d="M32,31c-1.654,0-3-1.346-3-3v-1h2v1c0,0.552,0.448,1,1,1s1-0.448,1-1v-1h2v1     C35,29.654,33.654,31,32,31z"/>
		</g>
	</g>
</g>
</svg>
