<?xml version="1.0"?>
<svg xmlns="http://www.w3.org/2000/svg" height="512px" viewBox="-72 0 496 496" width="512px">
    <path d="m306.984375 296.441406-17.527344-3.503906 9.648438-28.9375h-11.105469v-94.113281c0-7.550781-1.046875-15.117188-3.0625-22.40625l27.0625 6.765625v-16.949219c0-13.976563-1.777344-27.824219-5.289062-41.296875h25.113281l-4.390625-10.976562c-10.984375-27.457032-33.3125-48.609376-61.3125-58.085938l8.984375-26.9375h-41.167969c-21.441406 0-41.746094 7.457031-57.9375 21.144531-16.191406-13.6875-36.496094-21.144531-57.9375-21.144531h-41.167969l8.984375 26.9375c-28 9.476562-50.328125 30.628906-61.3125 58.085938l-4.390625 10.976562h25.113281c-3.511718 13.480469-5.289062 27.320312-5.289062 41.296875v16.949219l27.0625-6.765625c-2.015625 7.289062-3.0625 14.855469-3.0625 22.40625v94.113281h-11.105469l9.648438 28.929688-17.527344 3.503906c-26.085937 5.222656-45.015625 28.320312-45.015625 54.917968v144.648438h352v-144.648438c0-26.597656-18.929688-49.695312-45.015625-54.910156zm-210.640625-89.808594c-9.464844-3.21875-16.34375-12.089843-16.34375-22.632812 0-10.414062 6.710938-19.214844 16-22.527344v38.527344c0 2.222656.160156 4.433594.34375 6.632812zm15.65625-54.632812h128v32h-25.375c-7.296875 0-14.160156-2.839844-19.3125-8-10.328125-10.3125-28.296875-10.320312-38.625 0-5.160156 5.160156-12.015625 8-19.3125 8h-25.375zm144 9.472656c9.289062 3.3125 16 12.113282 16 22.527344 0 10.617188-6.96875 19.535156-16.535156 22.695312.328125-3.015624.535156-6.0625.535156-9.167968zm-16-25.472656h-128v-8h6.0625c21.449219 0 41.746094-7.457031 57.9375-21.144531 16.191406 13.6875 36.496094 21.144531 57.9375 21.144531h6.0625zm-102.625 64c11.570312 0 22.449219-4.503906 30.625-12.679688 4.28125-4.28125 11.71875-4.28125 16 0 8.175781 8.175782 19.054688 12.679688 30.625 12.679688h25.253906c-1.207031 33.910156-26.910156 61.742188-59.605468 63.855469-17.9375 1.191406-34.984376-4.925781-48.035157-17.160157-13.054687-12.222656-20.238281-28.816406-20.238281-46.695312zm38.625 265.207031-15.222656-40.605469c-16.441406-43.824218-24.777344-89.785156-24.777344-136.601562v-18.769531c12.054688 7 25.679688 10.769531 39.921875 10.769531 1.789063 0 3.582031-.054688 5.382813-.167969 12.617187-.816406 24.375-4.710937 34.695312-10.878906v19.046875c0 46.816406-8.335938 92.777344-24.777344 136.609375zm-50.550781-111.421875-30.914063-15.457031-19.429687-58.328125h44.894531v8c0 22.160156 1.886719 44.121094 5.449219 65.785156zm20.34375 76.4375 5.6875 15.175782-36.703125-44.855469 16.78125-16.78125c3.824218 15.695312 8.511718 31.214843 14.234375 46.460937zm60.414062 0c5.722657-15.246094 10.410157-30.765625 14.234375-46.460937l16.78125 16.78125-36.703125 44.855469zm25.792969-142.222656v-8h44.894531l-19.4375 58.328125-30.914062 15.457031c3.570312-21.664062 5.457031-43.625 5.457031-65.785156zm0-24v-7.679688c8.921875-9.054687 15.769531-20.222656 19.816406-32.710937 7.542969-.730469 14.449219-3.480469 20.183594-7.816406v48.207031zm-175.960938-130.257812c.351563-14.703126 2.890626-29.222657 7.546876-43.214844l3.519531-10.527344h-22.34375c10.300781-17.847656 26.796875-31.414062 46.628906-38.03125l14.730469-4.90625-7.015625-21.0625h18.957031c19.753906 0 38.3125 7.6875 52.28125 21.65625l5.65625 5.65625 5.65625-5.65625c13.96875-13.96875 32.527344-21.65625 52.28125-21.65625h18.957031l-7.015625 21.0625 14.722656 4.90625c19.839844 6.617188 36.335938 20.183594 46.636719 38.03125h-22.34375l3.511719 10.527344c4.65625 13.992187 7.195312 28.503906 7.546875 43.214844l-38.890625-9.71875 7.777344 15.550781c1.679687 3.363281 2.96875 6.898437 4.0625 10.480469-3.925782-2.429688-8.238282-4.292969-12.902344-5.246094v-32.808594h-22.0625c-19.753906 0-38.3125-7.6875-52.28125-21.65625l-5.65625-5.65625-5.65625 5.65625c-13.96875 13.96875-32.527344 21.65625-52.28125 21.65625h-22.0625v32.808594c-4.671875.953125-8.984375 2.824218-12.902344 5.246094 1.09375-3.589844 2.382813-7.125 4.0625-10.480469l7.777344-15.550781zm23.960938 82.050781c5.59375 4.230469 12.28125 6.941406 19.601562 7.757812 3.894532 12.585938 10.886719 24.121094 20.398438 33.472657v6.976562h-40zm-64 135.558593c0-19 13.519531-35.503906 32.160156-39.222656l19.488282-3.898437 13.816406 41.449219 41.03125 20.519531-29.273438 29.273437 65.890625 80.527344h-79.113281v-112h-16v112h-48zm320 128.648438h-48v-112h-16v112h-79.113281l65.890625-80.535156-29.273438-29.273438 41.03125-20.519531 13.816406-41.449219 19.488282 3.898438c18.640625 3.726562 32.160156 20.230468 32.160156 39.230468zm0 0"
          fill="#66BB6A"/>
    <path d="m176 240c17.648438 0 32-14.351562 32-32h-16c0 8.824219-7.175781 16-16 16s-16-7.175781-16-16h-16c0 17.648438 14.351562 32 32 32zm0 0"
          fill="#66BB6A"/>
</svg>
