<?xml version="1.0" encoding="UTF-8"?>
<svg width="497px" height="497px" viewBox="0 0 497 497" version="1.1" xmlns="http://www.w3.org/2000/svg" xmlns:xlink="http://www.w3.org/1999/xlink">
    <!-- Generator: Sketch 53.2 (72643) - https://sketchapp.com -->
    <title>three</title>
    <desc>Created with Sketch.</desc>
    <g id="Page-1" stroke="none" stroke-width="1" fill="none" fill-rule="evenodd">
        <g id="three" fill-rule="nonzero">
            <path d="M248.082,0.003 C111.07,0.003 0,111.061 0,248.085 C0,385.085 111.07,496.155 248.082,496.155 C385.088,496.155 496.158,385.085 496.158,248.085 C496.158,111.061 385.088,0.003 248.082,0.003 Z" id="Path" fill="#DB5643"></path>
            <path d="M319.637,269.711 C317,263.316 313.068,257.48 307.845,252.206 C302.619,246.933 296.199,242.245 288.582,238.143 C296.492,231.503 302.571,224.692 306.819,217.708 C311.067,210.727 313.191,202.353 313.191,192.586 C313.191,185.166 311.726,178.231 308.796,171.785 C305.866,165.339 301.52,159.677 295.759,154.793 C289.996,149.911 283.209,146.176 275.398,143.587 C267.584,141.001 258.941,139.705 249.47,139.705 C238.63,139.705 228.816,141.243 220.027,144.319 C211.238,147.395 203.888,151.474 197.981,156.55 C192.071,161.629 187.581,166.976 184.504,172.59 C181.428,178.207 179.89,183.553 179.89,188.63 C179.89,193.903 181.524,198.129 184.797,201.301 C188.068,204.476 191.656,206.062 195.564,206.062 C198.883,206.062 201.813,205.476 204.353,204.304 C206.891,203.132 208.649,201.521 209.626,199.47 C211.285,195.661 213.116,191.61 215.119,187.312 C217.119,183.016 219.244,179.5 221.491,176.765 C223.736,174.032 226.787,171.835 230.646,170.173 C234.502,168.514 239.41,167.683 245.368,167.683 C254.157,167.683 261.138,170.393 266.315,175.813 C271.49,181.233 274.079,187.704 274.079,195.222 C274.079,205.087 270.831,212.654 264.338,217.927 C257.842,223.2 250.104,225.837 241.12,225.837 L235.114,225.837 C228.179,225.837 222.956,227.279 219.44,230.158 C215.924,233.04 214.167,236.823 214.167,241.511 C214.167,246.297 215.632,250.032 218.562,252.717 C221.492,255.404 225.641,256.745 231.013,256.745 C232.185,256.745 234.822,256.551 238.923,256.159 C243.025,255.77 246.05,255.573 248.005,255.573 C259.138,255.573 267.828,258.821 274.079,265.314 C280.328,271.81 283.454,280.768 283.454,292.194 C283.454,299.91 281.623,306.696 277.961,312.555 C274.299,318.414 269.659,322.834 264.045,325.812 C258.428,328.792 252.594,330.28 246.54,330.28 C235.993,330.28 227.813,326.984 222.004,320.392 C216.192,313.8 210.748,303.718 205.671,290.143 C204.888,287.898 203.229,285.968 200.691,284.357 C198.15,282.746 195.514,281.94 192.781,281.94 C187.311,281.94 182.747,283.675 179.085,287.14 C175.423,290.608 173.592,295.174 173.592,300.836 C173.592,305.231 175.13,310.797 178.206,317.535 C181.282,324.273 185.823,330.792 191.829,337.091 C197.835,343.39 205.475,348.64 214.754,352.838 C224.03,357.036 234.529,359.137 246.248,359.137 C257.77,359.137 268.294,357.306 277.815,353.644 C287.336,349.982 295.563,344.905 302.498,338.41 C309.431,331.917 314.679,324.519 318.245,316.218 C321.808,307.919 323.592,299.324 323.592,290.437 C323.592,283.018 322.273,276.109 319.637,269.711 Z" id="Path" fill="#FFFFFF"></path>
        </g>
    </g>
</svg>