<?xml version="1.0" encoding="UTF-8"?>
<svg width="497px" height="497px" viewBox="0 0 497 497" version="1.1" xmlns="http://www.w3.org/2000/svg" xmlns:xlink="http://www.w3.org/1999/xlink">
    <!-- Generator: Sketch 53.2 (72643) - https://sketchapp.com -->
    <title>two</title>
    <desc>Created with Sketch.</desc>
    <g id="Page-1" stroke="none" stroke-width="1" fill="none" fill-rule="evenodd">
        <g id="two" fill-rule="nonzero">
            <path d="M248.082,0.003 C111.07,0.003 0,111.061 0,248.085 C0,385.085 111.07,496.155 248.082,496.155 C385.088,496.155 496.158,385.085 496.158,248.085 C496.158,111.061 385.088,0.003 248.082,0.003 Z" id="Path" fill="#DB5643"></path>
            <path d="M319.783,325.595 C315.778,322.471 309.969,320.907 302.351,320.907 L225.886,320.907 C228.326,317.197 230.72,314.022 233.064,311.386 C238.532,304.746 248.614,295.419 263.313,283.407 C278.009,271.395 288.483,262.583 294.734,256.967 C300.983,251.353 307.112,243.589 313.118,233.676 C319.124,223.765 322.127,212.754 322.127,200.644 C322.127,192.931 320.685,185.483 317.806,178.305 C314.924,171.127 310.896,164.805 305.721,159.335 C300.544,153.867 294.538,149.571 287.703,146.444 C277.156,141.756 264.412,139.413 249.471,139.413 C237.068,139.413 226.253,141.244 217.025,144.906 C207.797,148.568 200.179,153.379 194.173,159.335 C188.167,165.293 183.649,171.933 180.623,179.257 C177.595,186.581 176.082,193.612 176.082,200.351 C176.082,205.917 177.693,210.312 180.916,213.535 C184.139,216.758 188.19,218.369 193.074,218.369 C198.64,218.369 202.863,216.611 205.745,213.096 C208.624,209.58 211.213,204.552 213.509,198.008 C215.802,191.466 217.439,187.461 218.416,185.996 C225.74,174.767 235.797,169.15 248.592,169.15 C254.646,169.15 260.238,170.519 265.364,173.252 C270.491,175.987 274.542,179.821 277.522,184.751 C280.5,189.684 281.99,195.275 281.99,201.523 C281.99,207.286 280.598,213.169 277.815,219.174 C275.032,225.179 270.978,231.039 265.657,236.752 C260.333,242.465 253.668,248.155 245.662,253.817 C241.169,256.845 233.698,263.169 223.25,272.787 C212.799,282.407 201.081,293.954 188.094,307.431 C184.968,310.752 182.088,315.318 179.451,321.127 C176.814,326.939 175.496,331.601 175.496,335.116 C175.496,340.586 177.547,345.347 181.648,349.398 C185.75,353.452 191.462,355.477 198.787,355.477 L306.6,355.477 C313.045,355.477 317.854,353.818 321.029,350.497 C324.201,347.178 325.79,343.125 325.79,338.339 C325.789,332.97 323.786,328.722 319.783,325.595 Z" id="Path" fill="#FFFFFF"></path>
        </g>
    </g>
</svg>